<mxfile host="drawio-plugin" modified="2021-05-04T23:36:04.522Z" agent="5.0 (Macintosh; Intel Mac OS X 10_14_6) AppleWebKit/537.36 (KHTML, like Gecko) Chrome/87.0.4280.141 Safari/537.36" etag="_e1oMNQ7Dqt7nmMfXzdG" version="13.7.9" type="embed"><diagram id="deoypt5vyZIkIbAVOSS7" name="Page-1"><mxGraphModel dx="1697" dy="763" grid="1" gridSize="10" guides="1" tooltips="1" connect="1" arrows="1" fold="1" page="1" pageScale="1" pageWidth="850" pageHeight="1100" math="0" shadow="0"><root><mxCell id="0"/><mxCell id="1" parent="0"/><mxCell id="1qg1VEHHfylHOtbTz_-2-11" value="all" style="rounded=1;whiteSpace=wrap;html=1;verticalAlign=top;align=center;fillColor=#dae8fc;strokeColor=#6c8ebf;" parent="1" vertex="1"><mxGeometry x="70" y="80" width="710" height="380" as="geometry"/></mxCell><mxCell id="1qg1VEHHfylHOtbTz_-2-10" value="setup-relay" style="rounded=1;whiteSpace=wrap;html=1;verticalAlign=top;fillColor=#d5e8d4;strokeColor=#82b366;fontColor=#000000;" parent="1" vertex="1"><mxGeometry x="440" y="110" width="310" height="330" as="geometry"/></mxCell><mxCell id="1qg1VEHHfylHOtbTz_-2-9" value="setup-network" style="rounded=1;whiteSpace=wrap;html=1;verticalAlign=top;fillColor=#d5e8d4;strokeColor=#82b366;fontColor=#000000;" parent="1" vertex="1"><mxGeometry x="100" y="110" width="310" height="330" as="geometry"/></mxCell><mxCell id="1qg1VEHHfylHOtbTz_-2-6" value="config-onchain" style="rounded=1;whiteSpace=wrap;html=1;verticalAlign=top;fillColor=#fff2cc;strokeColor=#d6b656;fontColor=#000000;" parent="1" vertex="1"><mxGeometry x="470" y="150" width="250" height="200" as="geometry"/></mxCell><mxCell id="1qg1VEHHfylHOtbTz_-2-5" value="config-files" style="rounded=1;whiteSpace=wrap;html=1;verticalAlign=top;fillColor=#fff2cc;strokeColor=#d6b656;fontColor=#000000;" parent="1" vertex="1"><mxGeometry x="130" y="150" width="250" height="200" as="geometry"/></mxCell><mxCell id="1qg1VEHHfylHOtbTz_-2-1" value="1-create-network-config.sh" style="shape=process;whiteSpace=wrap;html=1;backgroundOutline=1;labelBackgroundColor=none;labelBorderColor=none;strokeColor=#666666;fillColor=#f5f5f5;fontColor=#333333;" parent="1" vertex="1"><mxGeometry x="160" y="190" width="190" height="60" as="geometry"/></mxCell><mxCell id="1qg1VEHHfylHOtbTz_-2-2" value="2-create-hermes-config.sh" style="shape=process;whiteSpace=wrap;html=1;backgroundOutline=1;strokeColor=#666666;fillColor=#f5f5f5;fontColor=#333333;" parent="1" vertex="1"><mxGeometry x="160" y="270" width="190" height="60" as="geometry"/></mxCell><mxCell id="1qg1VEHHfylHOtbTz_-2-3" value="3-create-onchain-config.sh" style="shape=process;whiteSpace=wrap;html=1;backgroundOutline=1;strokeColor=#666666;fillColor=#f5f5f5;fontColor=#333333;" parent="1" vertex="1"><mxGeometry x="505" y="190" width="190" height="60" as="geometry"/></mxCell><mxCell id="1qg1VEHHfylHOtbTz_-2-4" value="4-create-relayer-config.sh" style="shape=process;whiteSpace=wrap;html=1;backgroundOutline=1;strokeColor=#666666;fillColor=#f5f5f5;fontColor=#333333;" parent="1" vertex="1"><mxGeometry x="505" y="270" width="190" height="60" as="geometry"/></mxCell><mxCell id="1qg1VEHHfylHOtbTz_-2-7" value="network-up" style="rounded=1;whiteSpace=wrap;html=1;fillColor=#fff2cc;strokeColor=#d6b656;verticalAlign=top;fontColor=#000000;" parent="1" vertex="1"><mxGeometry x="130" y="360" width="250" height="60" as="geometry"/></mxCell><mxCell id="1qg1VEHHfylHOtbTz_-2-8" value="relay-up" style="rounded=1;whiteSpace=wrap;html=1;fillColor=#fff2cc;strokeColor=#d6b656;verticalAlign=top;fontColor=#000000;" parent="1" vertex="1"><mxGeometry x="470" y="360" width="250" height="60" as="geometry"/></mxCell><mxCell id="1qg1VEHHfylHOtbTz_-2-12" value="docker-compose" style="shape=process;whiteSpace=wrap;html=1;backgroundOutline=1;align=center;strokeColor=#666666;fillColor=#f5f5f5;fontColor=#333333;" parent="1" vertex="1"><mxGeometry x="195" y="390" width="120" height="20" as="geometry"/></mxCell><mxCell id="1qg1VEHHfylHOtbTz_-2-13" value="docker-compose" style="shape=process;whiteSpace=wrap;html=1;backgroundOutline=1;align=center;strokeColor=#666666;fillColor=#f5f5f5;fontColor=#333333;" parent="1" vertex="1"><mxGeometry x="540" y="390" width="120" height="20" as="geometry"/></mxCell><mxCell id="1qg1VEHHfylHOtbTz_-2-16" value="&lt;span style=&quot;font-size: 27px&quot;&gt;MAKE command hierarchy&lt;/span&gt;" style="text;html=1;align=center;verticalAlign=middle;whiteSpace=wrap;rounded=0;labelBackgroundColor=#C4C4C4;fontColor=#333333;perimeterSpacing=0;shadow=0;fontStyle=1" parent="1" vertex="1"><mxGeometry x="250" y="30" width="350" height="20" as="geometry"/></mxCell></root></mxGraphModel></diagram></mxfile>